<?xml version="1.0" standalone="no"?>
<!DOCTYPE svg PUBLIC "-//W3C//DTD SVG 20010904//EN"
 "http://www.w3.org/TR/2001/REC-SVG-20010904/DTD/svg10.dtd">
<svg version="1.0" xmlns="http://www.w3.org/2000/svg"
 width="560.000000pt" height="479.000000pt" viewBox="0 0 560.000000 479.000000"
 preserveAspectRatio="xMidYMid meet">

<g transform="translate(0.000000,479.000000) scale(0.100000,-0.100000)"
fill="#000000" stroke="none">
<path d="M2815 2845 c-5 -2 -35 -11 -67 -19 -113 -32 -209 -141 -274 -311 -23
-62 -27 -84 -27 -190 0 -139 23 -287 57 -361 31 -67 88 -130 146 -159 57 -29
179 -55 258 -55 97 0 295 57 312 91 6 10 10 101 10 202 0 170 2 186 20 210 11
14 17 28 12 31 -7 4 -136 2 -251 -4 -3 0 7 -13 22 -28 40 -42 46 -75 38 -229
-7 -153 -18 -185 -69 -204 -71 -28 -229 22 -304 96 -21 19 -52 65 -70 102 -32
67 -32 69 -31 208 2 368 132 586 336 561 64 -7 134 -43 166 -85 80 -103 113
-141 121 -136 11 7 0 177 -14 194 -31 39 -210 91 -311 90 -38 0 -74 -2 -80 -4z"/>
<path d="M360 2833 c0 -3 8 -15 18 -26 16 -17 17 -57 20 -461 2 -242 0 -460
-3 -483 -4 -28 -16 -53 -36 -72 -16 -16 -29 -33 -29 -36 0 -4 93 -5 208 -2
307 7 390 36 456 157 77 142 25 331 -109 397 -30 15 -55 32 -55 38 0 5 18 23
40 39 64 48 94 98 98 170 5 78 -10 133 -49 182 -40 50 -85 73 -178 90 -77 14
-381 20 -381 7z m335 -65 c40 -22 101 -86 114 -121 30 -80 1 -217 -53 -253
-29 -18 -147 -31 -190 -20 l-26 6 0 189 0 190 25 19 c28 22 76 18 130 -10z
m45 -466 c79 -42 157 -242 131 -338 -14 -52 -56 -107 -103 -134 -51 -29 -162
-33 -201 -7 l-27 17 0 234 c0 178 3 236 13 239 33 14 154 6 187 -11z"/>
<path d="M1180 2837 c0 -2 7 -21 15 -40 13 -31 15 -111 15 -505 l0 -469 -25
-37 -24 -36 134 0 c74 0 135 3 135 7 0 4 -12 17 -27 29 -24 19 -28 31 -34 100
-12 131 -10 299 3 312 7 7 29 12 49 12 44 0 66 -25 92 -103 16 -47 145 -245
196 -300 14 -16 39 -36 55 -44 38 -20 112 -22 154 -4 34 14 44 41 14 41 -32 0
-109 57 -161 120 -60 72 -107 160 -131 247 l-17 62 58 36 c32 20 67 48 78 63
56 80 67 277 20 368 -55 106 -136 134 -406 141 -106 3 -193 3 -193 0z m358
-69 c78 -37 132 -141 132 -255 0 -96 -76 -211 -162 -247 -44 -19 -119 -21
-136 -4 -9 9 -12 80 -12 259 0 238 1 248 20 262 27 19 101 12 158 -15z"/>
<path d="M2066 2809 l29 -30 3 -482 c3 -470 2 -482 -18 -509 -11 -15 -20 -30
-20 -33 0 -8 235 -6 243 2 4 4 -4 19 -19 34 -14 15 -30 44 -35 65 -4 22 -8
212 -8 424 0 357 6 499 24 543 7 16 -2 17 -111 17 l-118 0 30 -31z"/>
<path d="M3420 2835 c0 -2 11 -15 24 -28 15 -15 27 -42 31 -68 3 -24 5 -241 3
-481 -3 -433 -3 -437 -25 -466 l-22 -30 117 -4 c64 -2 121 -1 125 3 4 3 -2 24
-15 45 -22 37 -23 50 -26 267 l-4 227 226 0 226 0 0 -222 c0 -212 -9 -298 -30
-298 -6 0 -10 -7 -10 -15 0 -13 21 -15 130 -15 72 0 130 3 130 7 0 4 -9 17
-21 29 -34 36 -40 133 -37 588 3 394 4 429 21 440 9 7 17 16 17 20 0 3 -58 6
-130 6 -127 0 -153 -7 -110 -30 31 -17 40 -74 40 -267 l0 -183 -225 0 c-173 0
-225 3 -225 13 -1 6 0 86 0 177 1 172 11 243 37 272 15 17 10 18 -115 18 -73
0 -132 -2 -132 -5z"/>
<path d="M4438 2813 c-14 -34 -23 -193 -12 -193 5 1 26 25 46 54 44 64 101 95
186 103 44 4 61 2 70 -10 10 -12 12 -113 10 -474 -3 -413 -5 -461 -21 -492 -9
-19 -16 -35 -15 -37 3 -2 225 -7 242 -5 5 0 -1 12 -14 26 -13 14 -26 45 -31
72 -14 83 -11 897 3 911 17 17 121 15 168 -4 31 -13 50 -31 81 -80 23 -35 46
-64 50 -64 5 0 9 50 9 110 l0 110 -380 0 -380 0 -12 -27z"/>
</g>
</svg>
